<svg width="267" height="38" viewBox="0 0 267 38" fill="none" xmlns="http://www.w3.org/2000/svg">
<path d="M19.2188 8.51042C19.2188 9.5 19.0627 10.436 18.7506 11.3184C18.4385 12.2007 17.9211 12.9635 17.1983 13.6068C16.4756 14.25 15.6132 14.5716 14.6112 14.5716C13.3628 14.5716 12.2294 14.0974 11.2109 13.1491C10.1925 12.2007 9.4369 11.0833 8.94411 9.79688C8.45132 8.51042 8.20493 7.26519 8.20493 6.0612C8.20493 5.07161 8.36098 4.13563 8.67308 3.25326C8.98518 2.37088 9.5026 1.60807 10.2254 0.964844C10.9481 0.321615 11.8105 0 12.8125 0C14.0773 0 15.2148 0.474175 16.2251 1.42253C17.2353 2.37088 17.9868 3.48416 18.4796 4.76237C18.9724 6.04058 19.2188 7.28993 19.2188 8.51042ZM10.7921 20.4596C10.7921 21.7791 10.4471 22.9253 9.75721 23.8984C9.06731 24.8715 8.08994 25.3581 6.82512 25.3581C5.57672 25.3581 4.41456 24.9004 3.33864 23.985C2.26272 23.0697 1.4373 21.9688 0.86238 20.6823C0.28746 19.3958 0 18.1424 0 16.9219C0 15.6024 0.344952 14.452 1.03486 13.4707C1.72476 12.4894 2.70212 11.9987 3.96695 11.9987C5.21534 11.9987 6.3775 12.4564 7.45343 13.3717C8.52935 14.2871 9.35477 15.3921 9.92969 16.6868C10.5046 17.9816 10.7921 19.2391 10.7921 20.4596ZM20.5 19.7917C22.4383 19.7917 24.5327 20.5957 26.7831 22.2038C29.0335 23.8118 30.9143 25.7663 32.4255 28.0671C33.9367 30.3678 34.6923 32.4666 34.6923 34.3633C34.6923 35.122 34.5527 35.7528 34.2734 36.2559C33.9942 36.7589 33.5959 37.13 33.0784 37.3691C32.561 37.6083 32.0312 37.7732 31.4892 37.8639C30.9471 37.9546 30.3229 38 29.6166 38C28.4996 38 26.9596 37.6289 24.9967 36.8867C23.0338 36.1445 21.5349 35.7734 20.5 35.7734C19.4159 35.7734 17.8348 36.1404 15.7569 36.8744C13.679 37.6083 12.0323 37.9753 10.8167 37.9753C7.8107 37.9753 6.30769 36.7713 6.30769 34.3633C6.30769 32.9449 6.76763 31.3657 7.6875 29.6257C8.60737 27.8856 9.75311 26.2982 11.1247 24.8633C12.4963 23.4284 14.0363 22.2244 15.7446 21.2513C17.4529 20.2782 19.0381 19.7917 20.5 19.7917ZM26.3888 14.5716C25.3868 14.5716 24.5244 14.25 23.8017 13.6068C23.0789 12.9635 22.5615 12.2007 22.2494 11.3184C21.9373 10.436 21.7812 9.5 21.7812 8.51042C21.7812 7.28993 22.0276 6.04058 22.5204 4.76237C23.0132 3.48416 23.7647 2.37088 24.7749 1.42253C25.7852 0.474175 26.9227 0 28.1875 0C29.1895 0 30.0519 0.321615 30.7746 0.964844C31.4974 1.60807 32.0148 2.37088 32.3269 3.25326C32.639 4.13563 32.7951 5.07161 32.7951 6.0612C32.7951 7.26519 32.5487 8.51042 32.0559 9.79687C31.5631 11.0833 30.8075 12.2007 29.7891 13.1491C28.7706 14.0974 27.6372 14.5716 26.3888 14.5716ZM37.0331 11.9987C38.2979 11.9987 39.2752 12.4894 39.9651 13.4707C40.655 14.452 41 15.6024 41 16.9219C41 18.1424 40.7125 19.3958 40.1376 20.6823C39.5627 21.9687 38.7373 23.0697 37.6614 23.985C36.5854 24.9004 35.4233 25.3581 34.1749 25.3581C32.9101 25.3581 31.9327 24.8715 31.2428 23.8984C30.5529 22.9253 30.2079 21.7791 30.2079 20.4596C30.2079 19.2391 30.4954 17.9816 31.0703 16.6868C31.6452 15.3921 32.4707 14.2871 33.5466 13.3717C34.6225 12.4564 35.7847 11.9987 37.0331 11.9987Z" fill="#492C0E"/>
<path d="M67.9175 32.78C67.9975 32.78 68.0675 32.8125 68.1275 32.8775L68.705 33.5C68.265 34.01 67.73 34.4075 67.1 34.6925C66.475 34.9775 65.7175 35.12 64.8275 35.12C64.0575 35.12 63.3575 34.9875 62.7275 34.7225C62.0975 34.4525 61.56 34.0775 61.115 33.5975C60.67 33.1125 60.325 32.5325 60.08 31.8575C59.835 31.1825 59.7125 30.44 59.7125 29.63C59.7125 28.82 59.84 28.0775 60.095 27.4025C60.35 26.7275 60.7075 26.1475 61.1675 25.6625C61.6325 25.1775 62.1875 24.8025 62.8325 24.5375C63.4775 24.2675 64.19 24.1325 64.97 24.1325C65.735 24.1325 66.41 24.255 66.995 24.5C67.58 24.745 68.095 25.0775 68.54 25.4975L68.06 26.165C68.03 26.215 67.99 26.2575 67.94 26.2925C67.895 26.3225 67.8325 26.3375 67.7525 26.3375C67.6625 26.3375 67.5525 26.29 67.4225 26.195C67.2925 26.095 67.1225 25.985 66.9125 25.865C66.7025 25.745 66.44 25.6375 66.125 25.5425C65.81 25.4425 65.4225 25.3925 64.9625 25.3925C64.4075 25.3925 63.9 25.49 63.44 25.685C62.98 25.875 62.5825 26.1525 62.2475 26.5175C61.9175 26.8825 61.66 27.3275 61.475 27.8525C61.29 28.3775 61.1975 28.97 61.1975 29.63C61.1975 30.3 61.2925 30.8975 61.4825 31.4225C61.6775 31.9475 61.94 32.3925 62.27 32.7575C62.605 33.1175 62.9975 33.3925 63.4475 33.5825C63.9025 33.7725 64.3925 33.8675 64.9175 33.8675C65.2375 33.8675 65.525 33.85 65.78 33.815C66.04 33.775 66.2775 33.715 66.4925 33.635C66.7125 33.555 66.915 33.455 67.1 33.335C67.29 33.21 67.4775 33.0625 67.6625 32.8925C67.7475 32.8175 67.8325 32.78 67.9175 32.78ZM72.4695 28.415C72.7945 28.07 73.1545 27.795 73.5495 27.59C73.9445 27.385 74.3995 27.2825 74.9145 27.2825C75.3295 27.2825 75.6945 27.3525 76.0095 27.4925C76.3295 27.6275 76.5945 27.8225 76.8045 28.0775C77.0195 28.3275 77.182 28.63 77.292 28.985C77.402 29.34 77.457 29.7325 77.457 30.1625V35H76.1145V30.1625C76.1145 29.5875 75.982 29.1425 75.717 28.8275C75.457 28.5075 75.0595 28.3475 74.5245 28.3475C74.1295 28.3475 73.7595 28.4425 73.4145 28.6325C73.0745 28.8225 72.7595 29.08 72.4695 29.405V35H71.127V23.9525H72.4695V28.415ZM85.6263 30.3725C85.6263 30.0625 85.5813 29.78 85.4913 29.525C85.4063 29.265 85.2788 29.0425 85.1088 28.8575C84.9438 28.6675 84.7413 28.5225 84.5013 28.4225C84.2613 28.3175 83.9888 28.265 83.6838 28.265C83.0438 28.265 82.5363 28.4525 82.1613 28.8275C81.7913 29.1975 81.5613 29.7125 81.4713 30.3725H85.6263ZM86.7063 33.935C86.5413 34.135 86.3438 34.31 86.1138 34.46C85.8838 34.605 85.6363 34.725 85.3713 34.82C85.1113 34.915 84.8413 34.985 84.5613 35.03C84.2813 35.08 84.0038 35.105 83.7288 35.105C83.2038 35.105 82.7188 35.0175 82.2738 34.8425C81.8338 34.6625 81.4513 34.4025 81.1263 34.0625C80.8063 33.7175 80.5563 33.2925 80.3763 32.7875C80.1963 32.2825 80.1063 31.7025 80.1063 31.0475C80.1063 30.5175 80.1863 30.0225 80.3463 29.5625C80.5113 29.1025 80.7463 28.705 81.0513 28.37C81.3563 28.03 81.7288 27.765 82.1688 27.575C82.6088 27.38 83.1038 27.2825 83.6538 27.2825C84.1088 27.2825 84.5288 27.36 84.9138 27.515C85.3038 27.665 85.6388 27.885 85.9188 28.175C86.2038 28.46 86.4263 28.815 86.5863 29.24C86.7463 29.66 86.8263 30.14 86.8263 30.68C86.8263 30.89 86.8038 31.03 86.7588 31.1C86.7138 31.17 86.6288 31.205 86.5038 31.205H81.4263C81.4413 31.685 81.5063 32.1025 81.6213 32.4575C81.7413 32.8125 81.9063 33.11 82.1163 33.35C82.3263 33.585 82.5763 33.7625 82.8663 33.8825C83.1563 33.9975 83.4813 34.055 83.8413 34.055C84.1763 34.055 84.4638 34.0175 84.7038 33.9425C84.9488 33.8625 85.1588 33.7775 85.3338 33.6875C85.5088 33.5975 85.6538 33.515 85.7688 33.44C85.8888 33.36 85.9913 33.32 86.0763 33.32C86.1863 33.32 86.2713 33.3625 86.3313 33.4475L86.7063 33.935ZM90.7761 28.505C90.9411 28.32 91.1161 28.1525 91.3011 28.0025C91.4861 27.8525 91.6811 27.725 91.8861 27.62C92.0961 27.51 92.3161 27.4275 92.5461 27.3725C92.7811 27.3125 93.0336 27.2825 93.3036 27.2825C93.7186 27.2825 94.0836 27.3525 94.3986 27.4925C94.7186 27.6275 94.9836 27.8225 95.1936 28.0775C95.4086 28.3275 95.5711 28.63 95.6811 28.985C95.7911 29.34 95.8461 29.7325 95.8461 30.1625V35H94.5036V30.1625C94.5036 29.5875 94.3711 29.1425 94.1061 28.8275C93.8461 28.5075 93.4486 28.3475 92.9136 28.3475C92.5186 28.3475 92.1486 28.4425 91.8036 28.6325C91.4636 28.8225 91.1486 29.08 90.8586 29.405V35H89.5161V27.4025H90.3186C90.5086 27.4025 90.6261 27.495 90.6711 27.68L90.7761 28.505ZM100.34 27.4025V35H99.0054V27.4025H100.34ZM100.625 25.0175C100.625 25.1475 100.598 25.27 100.543 25.385C100.493 25.495 100.423 25.595 100.333 25.685C100.248 25.77 100.145 25.8375 100.025 25.8875C99.9104 25.9375 99.7879 25.9625 99.6579 25.9625C99.5279 25.9625 99.4054 25.9375 99.2904 25.8875C99.1804 25.8375 99.0829 25.77 98.9979 25.685C98.9129 25.595 98.8454 25.495 98.7954 25.385C98.7454 25.27 98.7204 25.1475 98.7204 25.0175C98.7204 24.8875 98.7454 24.765 98.7954 24.65C98.8454 24.53 98.9129 24.4275 98.9979 24.3425C99.0829 24.2525 99.1804 24.1825 99.2904 24.1325C99.4054 24.0825 99.5279 24.0575 99.6579 24.0575C99.7879 24.0575 99.9104 24.0825 100.025 24.1325C100.145 24.1825 100.248 24.2525 100.333 24.3425C100.423 24.4275 100.493 24.53 100.543 24.65C100.598 24.765 100.625 24.8875 100.625 25.0175ZM104.964 23.9525V35H103.629V23.9525H104.964ZM118.017 29.21C117.767 28.875 117.497 28.6425 117.207 28.5125C116.917 28.3775 116.592 28.31 116.232 28.31C115.527 28.31 114.984 28.5625 114.604 29.0675C114.224 29.5725 114.034 30.2925 114.034 31.2275C114.034 31.7225 114.077 32.1475 114.162 32.5025C114.247 32.8525 114.372 33.1425 114.537 33.3725C114.702 33.5975 114.904 33.7625 115.144 33.8675C115.384 33.9725 115.657 34.025 115.962 34.025C116.402 34.025 116.784 33.925 117.109 33.725C117.439 33.525 117.742 33.2425 118.017 32.8775V29.21ZM119.352 23.9525V35H118.557C118.367 35 118.247 34.9075 118.197 34.7225L118.077 33.8C117.752 34.19 117.382 34.505 116.967 34.745C116.552 34.985 116.072 35.105 115.527 35.105C115.092 35.105 114.697 35.0225 114.342 34.8575C113.987 34.6875 113.684 34.44 113.434 34.115C113.184 33.79 112.992 33.385 112.857 32.9C112.722 32.415 112.654 31.8575 112.654 31.2275C112.654 30.6675 112.729 30.1475 112.879 29.6675C113.029 29.1825 113.244 28.7625 113.524 28.4075C113.804 28.0525 114.147 27.775 114.552 27.575C114.962 27.37 115.422 27.2675 115.932 27.2675C116.397 27.2675 116.794 27.3475 117.124 27.5075C117.459 27.6625 117.757 27.88 118.017 28.16V23.9525H119.352ZM127.595 30.3725C127.595 30.0625 127.55 29.78 127.46 29.525C127.375 29.265 127.248 29.0425 127.078 28.8575C126.913 28.6675 126.71 28.5225 126.47 28.4225C126.23 28.3175 125.958 28.265 125.653 28.265C125.013 28.265 124.505 28.4525 124.13 28.8275C123.76 29.1975 123.53 29.7125 123.44 30.3725H127.595ZM128.675 33.935C128.51 34.135 128.313 34.31 128.083 34.46C127.853 34.605 127.605 34.725 127.34 34.82C127.08 34.915 126.81 34.985 126.53 35.03C126.25 35.08 125.973 35.105 125.698 35.105C125.173 35.105 124.688 35.0175 124.243 34.8425C123.803 34.6625 123.42 34.4025 123.095 34.0625C122.775 33.7175 122.525 33.2925 122.345 32.7875C122.165 32.2825 122.075 31.7025 122.075 31.0475C122.075 30.5175 122.155 30.0225 122.315 29.5625C122.48 29.1025 122.715 28.705 123.02 28.37C123.325 28.03 123.698 27.765 124.138 27.575C124.578 27.38 125.073 27.2825 125.623 27.2825C126.078 27.2825 126.498 27.36 126.883 27.515C127.273 27.665 127.608 27.885 127.888 28.175C128.173 28.46 128.395 28.815 128.555 29.24C128.715 29.66 128.795 30.14 128.795 30.68C128.795 30.89 128.773 31.03 128.728 31.1C128.683 31.17 128.598 31.205 128.473 31.205H123.395C123.41 31.685 123.475 32.1025 123.59 32.4575C123.71 32.8125 123.875 33.11 124.085 33.35C124.295 33.585 124.545 33.7625 124.835 33.8825C125.125 33.9975 125.45 34.055 125.81 34.055C126.145 34.055 126.433 34.0175 126.673 33.9425C126.918 33.8625 127.128 33.7775 127.303 33.6875C127.478 33.5975 127.623 33.515 127.738 33.44C127.858 33.36 127.96 33.32 128.045 33.32C128.155 33.32 128.24 33.3625 128.3 33.4475L128.675 33.935ZM142.185 25.9325C142.14 26.0075 142.09 26.065 142.035 26.105C141.985 26.14 141.923 26.1575 141.848 26.1575C141.763 26.1575 141.663 26.115 141.548 26.03C141.433 25.945 141.288 25.8525 141.113 25.7525C140.943 25.6475 140.735 25.5525 140.49 25.4675C140.25 25.3825 139.958 25.34 139.613 25.34C139.288 25.34 139 25.385 138.75 25.475C138.505 25.56 138.298 25.6775 138.128 25.8275C137.963 25.9775 137.838 26.155 137.753 26.36C137.668 26.56 137.625 26.7775 137.625 27.0125C137.625 27.3125 137.698 27.5625 137.843 27.7625C137.993 27.9575 138.188 28.125 138.428 28.265C138.673 28.405 138.948 28.5275 139.253 28.6325C139.563 28.7325 139.878 28.8375 140.198 28.9475C140.523 29.0575 140.838 29.1825 141.143 29.3225C141.453 29.4575 141.728 29.63 141.968 29.84C142.213 30.05 142.408 30.3075 142.553 30.6125C142.703 30.9175 142.778 31.2925 142.778 31.7375C142.778 32.2075 142.698 32.65 142.538 33.065C142.378 33.475 142.143 33.8325 141.833 34.1375C141.528 34.4425 141.15 34.6825 140.7 34.8575C140.255 35.0325 139.748 35.12 139.178 35.12C138.478 35.12 137.843 34.995 137.273 34.745C136.703 34.49 136.215 34.1475 135.81 33.7175L136.23 33.0275C136.27 32.9725 136.318 32.9275 136.373 32.8925C136.433 32.8525 136.498 32.8325 136.568 32.8325C136.633 32.8325 136.705 32.86 136.785 32.915C136.87 32.965 136.965 33.03 137.07 33.11C137.175 33.19 137.295 33.2775 137.43 33.3725C137.565 33.4675 137.718 33.555 137.888 33.635C138.063 33.715 138.26 33.7825 138.48 33.8375C138.7 33.8875 138.948 33.9125 139.223 33.9125C139.568 33.9125 139.875 33.865 140.145 33.77C140.415 33.675 140.643 33.5425 140.828 33.3725C141.018 33.1975 141.163 32.99 141.263 32.75C141.363 32.51 141.413 32.2425 141.413 31.9475C141.413 31.6225 141.338 31.3575 141.188 31.1525C141.043 30.9425 140.85 30.7675 140.61 30.6275C140.37 30.4875 140.095 30.37 139.785 30.275C139.475 30.175 139.16 30.075 138.84 29.975C138.52 29.87 138.205 29.75 137.895 29.615C137.585 29.48 137.31 29.305 137.07 29.09C136.83 28.875 136.635 28.6075 136.485 28.2875C136.34 27.9625 136.268 27.5625 136.268 27.0875C136.268 26.7075 136.34 26.34 136.485 25.985C136.635 25.63 136.85 25.315 137.13 25.04C137.415 24.765 137.763 24.545 138.173 24.38C138.588 24.215 139.063 24.1325 139.598 24.1325C140.198 24.1325 140.743 24.2275 141.233 24.4175C141.728 24.6075 142.163 24.8825 142.538 25.2425L142.185 25.9325ZM146.749 33.17C146.994 33.5 147.261 33.7325 147.551 33.8675C147.841 34.0025 148.166 34.07 148.526 34.07C149.236 34.07 149.781 33.8175 150.161 33.3125C150.541 32.8075 150.731 32.0875 150.731 31.1525C150.731 30.6575 150.686 30.2325 150.596 29.8775C150.511 29.5225 150.386 29.2325 150.221 29.0075C150.056 28.7775 149.854 28.61 149.614 28.505C149.374 28.4 149.101 28.3475 148.796 28.3475C148.361 28.3475 147.979 28.4475 147.649 28.6475C147.324 28.8475 147.024 29.13 146.749 29.495V33.17ZM146.681 28.58C147.001 28.185 147.371 27.8675 147.791 27.6275C148.211 27.3875 148.691 27.2675 149.231 27.2675C149.671 27.2675 150.069 27.3525 150.424 27.5225C150.779 27.6875 151.081 27.935 151.331 28.265C151.581 28.59 151.774 28.995 151.909 29.48C152.044 29.965 152.111 30.5225 152.111 31.1525C152.111 31.7125 152.036 32.235 151.886 32.72C151.736 33.2 151.519 33.6175 151.234 33.9725C150.954 34.3225 150.609 34.6 150.199 34.805C149.794 35.005 149.336 35.105 148.826 35.105C148.361 35.105 147.961 35.0275 147.626 34.8725C147.296 34.7125 147.004 34.4925 146.749 34.2125V37.5725H145.406V27.4025H146.209C146.399 27.4025 146.516 27.495 146.561 27.68L146.681 28.58ZM156.275 27.4025V35H154.94V27.4025H156.275ZM156.56 25.0175C156.56 25.1475 156.532 25.27 156.477 25.385C156.427 25.495 156.357 25.595 156.267 25.685C156.182 25.77 156.08 25.8375 155.96 25.8875C155.845 25.9375 155.722 25.9625 155.592 25.9625C155.462 25.9625 155.34 25.9375 155.225 25.8875C155.115 25.8375 155.017 25.77 154.932 25.685C154.847 25.595 154.78 25.495 154.73 25.385C154.68 25.27 154.655 25.1475 154.655 25.0175C154.655 24.8875 154.68 24.765 154.73 24.65C154.78 24.53 154.847 24.4275 154.932 24.3425C155.017 24.2525 155.115 24.1825 155.225 24.1325C155.34 24.0825 155.462 24.0575 155.592 24.0575C155.722 24.0575 155.845 24.0825 155.96 24.1325C156.08 24.1825 156.182 24.2525 156.267 24.3425C156.357 24.4275 156.427 24.53 156.477 24.65C156.532 24.765 156.56 24.8875 156.56 25.0175ZM161.851 35.12C161.251 35.12 160.788 34.9525 160.463 34.6175C160.143 34.2825 159.983 33.8 159.983 33.17V28.52H159.068C158.988 28.52 158.921 28.4975 158.866 28.4525C158.811 28.4025 158.783 28.3275 158.783 28.2275V27.695L160.028 27.5375L160.336 25.19C160.351 25.115 160.383 25.055 160.433 25.01C160.488 24.96 160.558 24.935 160.643 24.935H161.318V27.5525H163.516V28.52H161.318V33.08C161.318 33.4 161.396 33.6375 161.551 33.7925C161.706 33.9475 161.906 34.025 162.151 34.025C162.291 34.025 162.411 34.0075 162.511 33.9725C162.616 33.9325 162.706 33.89 162.781 33.845C162.856 33.8 162.918 33.76 162.968 33.725C163.023 33.685 163.071 33.665 163.111 33.665C163.181 33.665 163.243 33.7075 163.298 33.7925L163.688 34.43C163.458 34.645 163.181 34.815 162.856 34.94C162.531 35.06 162.196 35.12 161.851 35.12ZM171.187 27.9725C171.187 28.0675 171.169 28.16 171.134 28.25C171.104 28.34 171.062 28.4175 171.007 28.4825L166.889 33.9575H171.044V35H165.322V34.445C165.322 34.38 165.337 34.305 165.367 34.22C165.397 34.13 165.442 34.045 165.502 33.965L169.642 28.4525H165.554V27.4025H171.187V27.9725ZM182.152 29.825C182.567 29.825 182.932 29.77 183.247 29.66C183.567 29.55 183.834 29.3975 184.049 29.2025C184.269 29.0025 184.434 28.765 184.544 28.49C184.654 28.215 184.709 27.9125 184.709 27.5825C184.709 26.8975 184.497 26.3625 184.072 25.9775C183.652 25.5925 183.012 25.4 182.152 25.4H180.427V29.825H182.152ZM182.152 24.2525C182.832 24.2525 183.422 24.3325 183.922 24.4925C184.427 24.6475 184.844 24.87 185.174 25.16C185.504 25.45 185.749 25.8 185.909 26.21C186.074 26.62 186.157 27.0775 186.157 27.5825C186.157 28.0825 186.069 28.54 185.894 28.955C185.719 29.37 185.462 29.7275 185.122 30.0275C184.787 30.3275 184.369 30.5625 183.869 30.7325C183.374 30.8975 182.802 30.98 182.152 30.98H180.427V35H178.979V24.2525H182.152ZM191.53 27.2825C192.085 27.2825 192.585 27.375 193.03 27.56C193.475 27.745 193.855 28.0075 194.17 28.3475C194.485 28.6875 194.725 29.1 194.89 29.585C195.06 30.065 195.145 30.6025 195.145 31.1975C195.145 31.7975 195.06 32.3375 194.89 32.8175C194.725 33.2975 194.485 33.7075 194.17 34.0475C193.855 34.3875 193.475 34.65 193.03 34.835C192.585 35.015 192.085 35.105 191.53 35.105C190.97 35.105 190.465 35.015 190.015 34.835C189.57 34.65 189.19 34.3875 188.875 34.0475C188.56 33.7075 188.317 33.2975 188.147 32.8175C187.982 32.3375 187.9 31.7975 187.9 31.1975C187.9 30.6025 187.982 30.065 188.147 29.585C188.317 29.1 188.56 28.6875 188.875 28.3475C189.19 28.0075 189.57 27.745 190.015 27.56C190.465 27.375 190.97 27.2825 191.53 27.2825ZM191.53 34.0625C192.28 34.0625 192.84 33.8125 193.21 33.3125C193.58 32.8075 193.765 32.105 193.765 31.205C193.765 30.3 193.58 29.595 193.21 29.09C192.84 28.585 192.28 28.3325 191.53 28.3325C191.15 28.3325 190.817 28.3975 190.532 28.5275C190.252 28.6575 190.017 28.845 189.827 29.09C189.642 29.335 189.502 29.6375 189.407 29.9975C189.317 30.3525 189.272 30.755 189.272 31.205C189.272 32.105 189.457 32.8075 189.827 33.3125C190.202 33.8125 190.77 34.0625 191.53 34.0625ZM197.888 35V27.4025H198.691C198.881 27.4025 198.998 27.495 199.043 27.68L199.141 28.46C199.421 28.115 199.736 27.8325 200.086 27.6125C200.436 27.3925 200.841 27.2825 201.301 27.2825C201.811 27.2825 202.223 27.425 202.538 27.71C202.858 27.995 203.088 28.38 203.228 28.865C203.338 28.59 203.478 28.3525 203.648 28.1525C203.823 27.9525 204.018 27.7875 204.233 27.6575C204.448 27.5275 204.676 27.4325 204.916 27.3725C205.161 27.3125 205.408 27.2825 205.658 27.2825C206.058 27.2825 206.413 27.3475 206.723 27.4775C207.038 27.6025 207.303 27.7875 207.518 28.0325C207.738 28.2775 207.906 28.58 208.021 28.94C208.136 29.295 208.193 29.7025 208.193 30.1625V35H206.851V30.1625C206.851 29.5675 206.721 29.1175 206.461 28.8125C206.201 28.5025 205.826 28.3475 205.336 28.3475C205.116 28.3475 204.906 28.3875 204.706 28.4675C204.511 28.5425 204.338 28.655 204.188 28.805C204.038 28.955 203.918 29.145 203.828 29.375C203.743 29.6 203.701 29.8625 203.701 30.1625V35H202.358V30.1625C202.358 29.5525 202.236 29.0975 201.991 28.7975C201.746 28.4975 201.388 28.3475 200.918 28.3475C200.588 28.3475 200.283 28.4375 200.003 28.6175C199.723 28.7925 199.466 29.0325 199.231 29.3375V35H197.888ZM216.357 30.3725C216.357 30.0625 216.312 29.78 216.222 29.525C216.137 29.265 216.01 29.0425 215.84 28.8575C215.675 28.6675 215.472 28.5225 215.232 28.4225C214.992 28.3175 214.72 28.265 214.415 28.265C213.775 28.265 213.267 28.4525 212.892 28.8275C212.522 29.1975 212.292 29.7125 212.202 30.3725H216.357ZM217.437 33.935C217.272 34.135 217.075 34.31 216.845 34.46C216.615 34.605 216.367 34.725 216.102 34.82C215.842 34.915 215.572 34.985 215.292 35.03C215.012 35.08 214.735 35.105 214.46 35.105C213.935 35.105 213.45 35.0175 213.005 34.8425C212.565 34.6625 212.182 34.4025 211.857 34.0625C211.537 33.7175 211.287 33.2925 211.107 32.7875C210.927 32.2825 210.837 31.7025 210.837 31.0475C210.837 30.5175 210.917 30.0225 211.077 29.5625C211.242 29.1025 211.477 28.705 211.782 28.37C212.087 28.03 212.46 27.765 212.9 27.575C213.34 27.38 213.835 27.2825 214.385 27.2825C214.84 27.2825 215.26 27.36 215.645 27.515C216.035 27.665 216.37 27.885 216.65 28.175C216.935 28.46 217.157 28.815 217.317 29.24C217.477 29.66 217.557 30.14 217.557 30.68C217.557 30.89 217.535 31.03 217.49 31.1C217.445 31.17 217.36 31.205 217.235 31.205H212.157C212.172 31.685 212.237 32.1025 212.352 32.4575C212.472 32.8125 212.637 33.11 212.847 33.35C213.057 33.585 213.307 33.7625 213.597 33.8825C213.887 33.9975 214.212 34.055 214.572 34.055C214.907 34.055 215.195 34.0175 215.435 33.9425C215.68 33.8625 215.89 33.7775 216.065 33.6875C216.24 33.5975 216.385 33.515 216.5 33.44C216.62 33.36 216.722 33.32 216.807 33.32C216.917 33.32 217.002 33.3625 217.062 33.4475L217.437 33.935ZM216.597 24.1325L214.85 26.0675C214.78 26.1425 214.71 26.1975 214.64 26.2325C214.575 26.2625 214.49 26.2775 214.385 26.2775H213.59L214.7 24.4625C214.77 24.3475 214.845 24.265 214.925 24.215C215.01 24.16 215.132 24.1325 215.292 24.1325H216.597ZM221.514 28.925C221.754 28.405 222.049 28 222.399 27.71C222.749 27.415 223.177 27.2675 223.682 27.2675C223.842 27.2675 223.994 27.285 224.139 27.32C224.289 27.355 224.422 27.41 224.537 27.485L224.439 28.4825C224.409 28.6075 224.334 28.67 224.214 28.67C224.144 28.67 224.042 28.655 223.907 28.625C223.772 28.595 223.619 28.58 223.449 28.58C223.209 28.58 222.994 28.615 222.804 28.685C222.619 28.755 222.452 28.86 222.302 29C222.157 29.135 222.024 29.305 221.904 29.51C221.789 29.71 221.684 29.94 221.589 30.2V35H220.247V27.4025H221.012C221.157 27.4025 221.257 27.43 221.312 27.485C221.367 27.54 221.404 27.635 221.424 27.77L221.514 28.925ZM230.761 31.58C230.146 31.6 229.621 31.65 229.186 31.73C228.756 31.805 228.404 31.905 228.129 32.03C227.859 32.155 227.661 32.3025 227.536 32.4725C227.416 32.6425 227.356 32.8325 227.356 33.0425C227.356 33.2425 227.389 33.415 227.454 33.56C227.519 33.705 227.606 33.825 227.716 33.92C227.831 34.01 227.964 34.0775 228.114 34.1225C228.269 34.1625 228.434 34.1825 228.609 34.1825C228.844 34.1825 229.059 34.16 229.254 34.115C229.449 34.065 229.631 33.995 229.801 33.905C229.976 33.815 230.141 33.7075 230.296 33.5825C230.456 33.4575 230.611 33.315 230.761 33.155V31.58ZM226.449 28.475C226.869 28.07 227.321 27.7675 227.806 27.5675C228.291 27.3675 228.829 27.2675 229.419 27.2675C229.844 27.2675 230.221 27.3375 230.551 27.4775C230.881 27.6175 231.159 27.8125 231.384 28.0625C231.609 28.3125 231.779 28.615 231.894 28.97C232.009 29.325 232.066 29.715 232.066 30.14V35H231.474C231.344 35 231.244 34.98 231.174 34.94C231.104 34.895 231.049 34.81 231.009 34.685L230.859 33.965C230.659 34.15 230.464 34.315 230.274 34.46C230.084 34.6 229.884 34.72 229.674 34.82C229.464 34.915 229.239 34.9875 228.999 35.0375C228.764 35.0925 228.501 35.12 228.211 35.12C227.916 35.12 227.639 35.08 227.379 35C227.119 34.915 226.891 34.79 226.696 34.625C226.506 34.46 226.354 34.2525 226.239 34.0025C226.129 33.7475 226.074 33.4475 226.074 33.1025C226.074 32.8025 226.156 32.515 226.321 32.24C226.486 31.96 226.754 31.7125 227.124 31.4975C227.494 31.2825 227.976 31.1075 228.571 30.9725C229.166 30.8325 229.896 30.7525 230.761 30.7325V30.14C230.761 29.55 230.634 29.105 230.379 28.805C230.124 28.5 229.751 28.3475 229.261 28.3475C228.931 28.3475 228.654 28.39 228.429 28.475C228.209 28.555 228.016 28.6475 227.851 28.7525C227.691 28.8525 227.551 28.945 227.431 29.03C227.316 29.11 227.201 29.15 227.086 29.15C226.996 29.15 226.919 29.1275 226.854 29.0825C226.789 29.0325 226.734 28.9725 226.689 28.9025L226.449 28.475ZM236.41 28.505C236.575 28.32 236.75 28.1525 236.935 28.0025C237.12 27.8525 237.315 27.725 237.52 27.62C237.73 27.51 237.95 27.4275 238.18 27.3725C238.415 27.3125 238.667 27.2825 238.937 27.2825C239.352 27.2825 239.717 27.3525 240.032 27.4925C240.352 27.6275 240.617 27.8225 240.827 28.0775C241.042 28.3275 241.205 28.63 241.315 28.985C241.425 29.34 241.48 29.7325 241.48 30.1625V35H240.137V30.1625C240.137 29.5875 240.005 29.1425 239.74 28.8275C239.48 28.5075 239.082 28.3475 238.547 28.3475C238.152 28.3475 237.782 28.4425 237.437 28.6325C237.097 28.8225 236.782 29.08 236.492 29.405V35H235.15V27.4025H235.952C236.142 27.4025 236.26 27.495 236.305 27.68L236.41 28.505ZM245.974 27.4025V35H244.639V27.4025H245.974ZM246.259 25.0175C246.259 25.1475 246.231 25.27 246.176 25.385C246.126 25.495 246.056 25.595 245.966 25.685C245.881 25.77 245.779 25.8375 245.659 25.8875C245.544 25.9375 245.421 25.9625 245.291 25.9625C245.161 25.9625 245.039 25.9375 244.924 25.8875C244.814 25.8375 244.716 25.77 244.631 25.685C244.546 25.595 244.479 25.495 244.429 25.385C244.379 25.27 244.354 25.1475 244.354 25.0175C244.354 24.8875 244.379 24.765 244.429 24.65C244.479 24.53 244.546 24.4275 244.631 24.3425C244.716 24.2525 244.814 24.1825 244.924 24.1325C245.039 24.0825 245.161 24.0575 245.291 24.0575C245.421 24.0575 245.544 24.0825 245.659 24.1325C245.779 24.1825 245.881 24.2525 245.966 24.3425C246.056 24.4275 246.126 24.53 246.176 24.65C246.231 24.765 246.259 24.8875 246.259 25.0175ZM254.302 30.3725C254.302 30.0625 254.257 29.78 254.167 29.525C254.082 29.265 253.955 29.0425 253.785 28.8575C253.62 28.6675 253.417 28.5225 253.177 28.4225C252.937 28.3175 252.665 28.265 252.36 28.265C251.72 28.265 251.212 28.4525 250.837 28.8275C250.467 29.1975 250.237 29.7125 250.147 30.3725H254.302ZM255.382 33.935C255.217 34.135 255.02 34.31 254.79 34.46C254.56 34.605 254.312 34.725 254.047 34.82C253.787 34.915 253.517 34.985 253.237 35.03C252.957 35.08 252.68 35.105 252.405 35.105C251.88 35.105 251.395 35.0175 250.95 34.8425C250.51 34.6625 250.127 34.4025 249.802 34.0625C249.482 33.7175 249.232 33.2925 249.052 32.7875C248.872 32.2825 248.782 31.7025 248.782 31.0475C248.782 30.5175 248.862 30.0225 249.022 29.5625C249.187 29.1025 249.422 28.705 249.727 28.37C250.032 28.03 250.405 27.765 250.845 27.575C251.285 27.38 251.78 27.2825 252.33 27.2825C252.785 27.2825 253.205 27.36 253.59 27.515C253.98 27.665 254.315 27.885 254.595 28.175C254.88 28.46 255.102 28.815 255.262 29.24C255.422 29.66 255.502 30.14 255.502 30.68C255.502 30.89 255.48 31.03 255.435 31.1C255.39 31.17 255.305 31.205 255.18 31.205H250.102C250.117 31.685 250.182 32.1025 250.297 32.4575C250.417 32.8125 250.582 33.11 250.792 33.35C251.002 33.585 251.252 33.7625 251.542 33.8825C251.832 33.9975 252.157 34.055 252.517 34.055C252.852 34.055 253.14 34.0175 253.38 33.9425C253.625 33.8625 253.835 33.7775 254.01 33.6875C254.185 33.5975 254.33 33.515 254.445 33.44C254.565 33.36 254.667 33.32 254.752 33.32C254.862 33.32 254.947 33.3625 255.007 33.4475L255.382 33.935ZM259.452 28.505C259.617 28.32 259.792 28.1525 259.977 28.0025C260.162 27.8525 260.357 27.725 260.562 27.62C260.772 27.51 260.992 27.4275 261.222 27.3725C261.457 27.3125 261.71 27.2825 261.98 27.2825C262.395 27.2825 262.76 27.3525 263.075 27.4925C263.395 27.6275 263.66 27.8225 263.87 28.0775C264.085 28.3275 264.247 28.63 264.357 28.985C264.467 29.34 264.522 29.7325 264.522 30.1625V35H263.18V30.1625C263.18 29.5875 263.047 29.1425 262.782 28.8275C262.522 28.5075 262.125 28.3475 261.59 28.3475C261.195 28.3475 260.825 28.4425 260.48 28.6325C260.14 28.8225 259.825 29.08 259.535 29.405V35H258.192V27.4025H258.995C259.185 27.4025 259.302 27.495 259.347 27.68L259.452 28.505Z" fill="#492C0E"/>
<path d="M60.707 15.2271L63.8755 0.23584H67.167L68.2847 12.0586H68.3667L74.6113 0.23584H78.1079L74.96 15.2271H72.6528L74.3857 7.02393C74.4951 6.50439 74.6113 5.98828 74.7344 5.47559C74.8574 4.95605 74.9771 4.46387 75.0933 3.99902C75.2163 3.53418 75.3257 3.12744 75.4214 2.77881H75.3496L68.7461 15.2271H66.6235L65.4546 2.77881H65.3726C65.3452 3.07275 65.2939 3.45557 65.2188 3.92725C65.1436 4.39893 65.0581 4.9082 64.9624 5.45508C64.8667 5.99512 64.7642 6.52148 64.6548 7.03418L62.9321 15.2271H60.707Z" fill="#492C0E"/>
<path d="M78.7334 15.2271L81.9224 0.23584H84.3423L81.1431 15.2271H78.7334Z" fill="#492C0E"/>
<path d="M91.2329 15.4321C89.4761 15.4321 88.1055 14.9365 87.1211 13.9453C86.1367 12.9473 85.6445 11.5254 85.6445 9.67969C85.6445 8.62012 85.7676 7.6084 86.0137 6.64453C86.2598 5.67383 86.6187 4.78516 87.0903 3.97852C87.562 3.17188 88.1396 2.47119 88.8232 1.87646C89.5137 1.28174 90.2964 0.82373 91.1714 0.502441C92.0532 0.174316 93.0205 0.0102539 94.0732 0.0102539C94.9072 0.0102539 95.6626 0.0922852 96.3394 0.256348C97.0229 0.413574 97.6895 0.645996 98.3389 0.953613L97.416 3.00439C96.9033 2.74463 96.3667 2.53271 95.8062 2.36865C95.2456 2.20459 94.6406 2.12256 93.9912 2.12256C93.0889 2.12256 92.2788 2.3208 91.561 2.71729C90.8433 3.10693 90.228 3.64355 89.7153 4.32715C89.2095 5.01074 88.8232 5.79688 88.5566 6.68555C88.29 7.57422 88.1567 8.51416 88.1567 9.50537C88.1567 10.2847 88.2798 10.9614 88.5259 11.5356C88.772 12.1099 89.1548 12.5542 89.6743 12.8687C90.1938 13.1763 90.8535 13.3301 91.6533 13.3301C92.1045 13.3301 92.5112 13.2993 92.8735 13.2378C93.2427 13.1694 93.5845 13.0908 93.8989 13.002L94.7397 9.17725H91.8276L92.2788 7.0957H97.5698L95.9497 14.6323C95.2935 14.8647 94.5928 15.0562 93.8477 15.2065C93.1094 15.3569 92.2378 15.4321 91.2329 15.4321Z" fill="#492C0E"/>
<path d="M99.3438 15.2271L102.512 0.23584H105.25L109.372 12.0278H109.434C109.481 11.7134 109.543 11.3271 109.618 10.8691C109.693 10.4043 109.779 9.92236 109.875 9.42334C109.97 8.92432 110.062 8.46289 110.151 8.03906L111.812 0.23584H114.038L110.869 15.2271H108.203L103.989 3.26074H103.917C103.896 3.41797 103.862 3.65723 103.814 3.97852C103.767 4.29297 103.708 4.65527 103.64 5.06543C103.579 5.47559 103.51 5.89258 103.435 6.31641C103.36 6.74023 103.281 7.1333 103.199 7.49561L101.569 15.2271H99.3438Z" fill="#492C0E"/>
<path d="M120.908 15.4321C119.698 15.4321 118.679 15.1963 117.852 14.7246C117.032 14.2461 116.41 13.5728 115.986 12.7046C115.569 11.8364 115.36 10.8213 115.36 9.65918C115.36 8.83887 115.432 8.03564 115.576 7.24951C115.726 6.45654 115.945 5.70117 116.232 4.9834C116.519 4.26562 116.878 3.60254 117.309 2.99414C117.746 2.38574 118.252 1.85938 118.826 1.41504C119.4 0.963867 120.043 0.615234 120.754 0.369141C121.472 0.123047 122.254 0 123.102 0C124.852 0 126.192 0.516113 127.122 1.54834C128.058 2.58057 128.526 3.98193 128.526 5.75244C128.526 6.57275 128.458 7.38281 128.321 8.18262C128.191 8.97559 127.986 9.73438 127.706 10.459C127.433 11.1768 127.087 11.8398 126.67 12.4482C126.253 13.0498 125.761 13.5728 125.194 14.0171C124.633 14.4614 123.994 14.8101 123.276 15.063C122.565 15.3091 121.776 15.4321 120.908 15.4321ZM121.051 13.3301C121.55 13.3301 122.019 13.2412 122.456 13.0635C122.894 12.8857 123.293 12.6362 123.656 12.3149C124.025 11.9868 124.353 11.5938 124.64 11.1357C124.934 10.6777 125.18 10.1685 125.378 9.60791C125.583 9.04736 125.741 8.4458 125.85 7.80322C125.959 7.15381 126.014 6.47705 126.014 5.77295C126.014 4.63135 125.744 3.73242 125.204 3.07617C124.671 2.41992 123.909 2.0918 122.917 2.0918C122.405 2.0918 121.923 2.18408 121.472 2.36865C121.027 2.54639 120.617 2.80615 120.241 3.14795C119.865 3.48291 119.53 3.88281 119.236 4.34766C118.949 4.80566 118.703 5.31494 118.498 5.87549C118.293 6.43604 118.136 7.03418 118.026 7.66992C117.924 8.29883 117.873 8.95508 117.873 9.63867C117.873 10.418 117.996 11.0845 118.242 11.6382C118.495 12.1919 118.857 12.6123 119.329 12.8994C119.807 13.1865 120.381 13.3301 121.051 13.3301Z" fill="#492C0E"/>
<path d="M129.9 15.2271L133.069 0.23584H135.807L139.929 12.0278H139.99C140.038 11.7134 140.1 11.3271 140.175 10.8691C140.25 10.4043 140.335 9.92236 140.431 9.42334C140.527 8.92432 140.619 8.46289 140.708 8.03906L142.369 0.23584H144.594L141.426 15.2271H138.76L134.545 3.26074H134.474C134.453 3.41797 134.419 3.65723 134.371 3.97852C134.323 4.29297 134.265 4.65527 134.197 5.06543C134.135 5.47559 134.067 5.89258 133.992 6.31641C133.917 6.74023 133.838 7.1333 133.756 7.49561L132.125 15.2271H129.9Z" fill="#492C0E"/>
<path d="M156.919 15.4321C155.709 15.4321 154.691 15.1963 153.864 14.7246C153.043 14.2461 152.421 13.5728 151.998 12.7046C151.581 11.8364 151.372 10.8213 151.372 9.65918C151.372 8.83887 151.444 8.03564 151.587 7.24951C151.738 6.45654 151.957 5.70117 152.244 4.9834C152.531 4.26562 152.89 3.60254 153.32 2.99414C153.758 2.38574 154.264 1.85938 154.838 1.41504C155.412 0.963867 156.055 0.615234 156.766 0.369141C157.483 0.123047 158.266 0 159.114 0C160.864 0 162.204 0.516113 163.133 1.54834C164.07 2.58057 164.538 3.98193 164.538 5.75244C164.538 6.57275 164.47 7.38281 164.333 8.18262C164.203 8.97559 163.998 9.73438 163.718 10.459C163.444 11.1768 163.099 11.8398 162.682 12.4482C162.265 13.0498 161.773 13.5728 161.206 14.0171C160.645 14.4614 160.006 14.8101 159.288 15.063C158.577 15.3091 157.788 15.4321 156.919 15.4321ZM157.063 13.3301C157.562 13.3301 158.03 13.2412 158.468 13.0635C158.905 12.8857 159.305 12.6362 159.667 12.3149C160.037 11.9868 160.365 11.5938 160.652 11.1357C160.946 10.6777 161.192 10.1685 161.39 9.60791C161.595 9.04736 161.752 8.4458 161.862 7.80322C161.971 7.15381 162.026 6.47705 162.026 5.77295C162.026 4.63135 161.756 3.73242 161.216 3.07617C160.683 2.41992 159.92 2.0918 158.929 2.0918C158.417 2.0918 157.935 2.18408 157.483 2.36865C157.039 2.54639 156.629 2.80615 156.253 3.14795C155.877 3.48291 155.542 3.88281 155.248 4.34766C154.961 4.80566 154.715 5.31494 154.51 5.87549C154.305 6.43604 154.147 7.03418 154.038 7.66992C153.936 8.29883 153.884 8.95508 153.884 9.63867C153.884 10.418 154.007 11.0845 154.253 11.6382C154.506 12.1919 154.869 12.6123 155.34 12.8994C155.819 13.1865 156.393 13.3301 157.063 13.3301Z" fill="#492C0E"/>
<path d="M165.922 15.2271L169.091 0.23584H177.058L176.627 2.30713H171.08L170.096 6.99316H175.274L174.823 9.06445H169.645L168.342 15.2271H165.922Z" fill="#492C0E"/>
<path d="M176.525 15.2271L179.693 0.23584H187.661L187.23 2.30713H181.683L180.698 6.99316H185.876L185.425 9.06445H180.247L178.945 15.2271H176.525Z" fill="#492C0E"/>
<path d="M193.362 15.4321C192.152 15.4321 191.133 15.1963 190.306 14.7246C189.486 14.2461 188.864 13.5728 188.44 12.7046C188.023 11.8364 187.814 10.8213 187.814 9.65918C187.814 8.83887 187.886 8.03564 188.03 7.24951C188.18 6.45654 188.399 5.70117 188.686 4.9834C188.973 4.26562 189.332 3.60254 189.763 2.99414C190.2 2.38574 190.706 1.85938 191.28 1.41504C191.854 0.963867 192.497 0.615234 193.208 0.369141C193.926 0.123047 194.708 0 195.556 0C197.306 0 198.646 0.516113 199.576 1.54834C200.512 2.58057 200.98 3.98193 200.98 5.75244C200.98 6.57275 200.912 7.38281 200.775 8.18262C200.646 8.97559 200.44 9.73438 200.16 10.459C199.887 11.1768 199.542 11.8398 199.125 12.4482C198.708 13.0498 198.215 13.5728 197.648 14.0171C197.087 14.4614 196.448 14.8101 195.73 15.063C195.02 15.3091 194.23 15.4321 193.362 15.4321ZM193.505 13.3301C194.004 13.3301 194.473 13.2412 194.91 13.0635C195.348 12.8857 195.748 12.6362 196.11 12.3149C196.479 11.9868 196.807 11.5938 197.094 11.1357C197.388 10.6777 197.634 10.1685 197.833 9.60791C198.038 9.04736 198.195 8.4458 198.304 7.80322C198.414 7.15381 198.468 6.47705 198.468 5.77295C198.468 4.63135 198.198 3.73242 197.658 3.07617C197.125 2.41992 196.363 2.0918 195.372 2.0918C194.859 2.0918 194.377 2.18408 193.926 2.36865C193.481 2.54639 193.071 2.80615 192.695 3.14795C192.319 3.48291 191.984 3.88281 191.69 4.34766C191.403 4.80566 191.157 5.31494 190.952 5.87549C190.747 6.43604 190.59 7.03418 190.48 7.66992C190.378 8.29883 190.327 8.95508 190.327 9.63867C190.327 10.418 190.45 11.0845 190.696 11.6382C190.949 12.1919 191.311 12.6123 191.783 12.8994C192.261 13.1865 192.835 13.3301 193.505 13.3301Z" fill="#492C0E"/>
<path d="M202.365 15.2271L205.533 0.23584H209.009C210.527 0.23584 211.696 0.557129 212.516 1.19971C213.336 1.83545 213.747 2.82324 213.747 4.16309C213.747 4.92871 213.61 5.6123 213.336 6.21387C213.07 6.81543 212.673 7.32812 212.147 7.75195C211.621 8.16895 210.971 8.49365 210.199 8.72607L212.772 15.2271H210.127L207.974 9.21826H206.056L204.785 15.2271H202.365ZM206.487 7.18799H207.789C208.356 7.18799 208.855 7.12305 209.286 6.99316C209.724 6.86328 210.086 6.67871 210.373 6.43945C210.667 6.19336 210.886 5.89258 211.029 5.53711C211.18 5.1748 211.255 4.76807 211.255 4.31689C211.255 3.59912 211.05 3.08301 210.64 2.76855C210.229 2.44727 209.601 2.28662 208.753 2.28662H207.533L206.487 7.18799Z" fill="#492C0E"/>
<path d="M217.038 15.2271L219.766 2.32764H215.869L216.31 0.23584H226.543L226.113 2.32764H222.206L219.479 15.2271H217.038Z" fill="#492C0E"/>
<path d="M231.127 15.4321C230.102 15.4321 229.24 15.2646 228.543 14.9297C227.846 14.5947 227.323 14.1162 226.974 13.4941C226.625 12.8652 226.451 12.1167 226.451 11.2485C226.451 11.0229 226.465 10.7563 226.492 10.4487C226.526 10.1411 226.578 9.8335 226.646 9.52588L228.625 0.23584H231.055L229.076 9.54639C229.015 9.82666 228.963 10.1069 228.922 10.3872C228.888 10.6675 228.871 10.9067 228.871 11.105C228.871 11.8091 229.076 12.356 229.486 12.7456C229.903 13.1353 230.522 13.3301 231.342 13.3301C232.067 13.3301 232.668 13.2002 233.147 12.9404C233.625 12.6738 234.012 12.2773 234.306 11.751C234.606 11.2246 234.839 10.5718 235.003 9.79248L237.033 0.23584H239.463L237.392 10.0181C237.16 11.105 236.794 12.0552 236.295 12.8687C235.796 13.6821 235.126 14.3145 234.285 14.7656C233.444 15.21 232.392 15.4321 231.127 15.4321Z" fill="#492C0E"/>
<path d="M239.966 15.2271L243.134 0.23584H245.872L249.994 12.0278H250.056C250.104 11.7134 250.165 11.3271 250.24 10.8691C250.315 10.4043 250.401 9.92236 250.497 9.42334C250.592 8.92432 250.685 8.46289 250.773 8.03906L252.435 0.23584H254.66L251.491 15.2271H248.825L244.611 3.26074H244.539C244.519 3.41797 244.484 3.65723 244.437 3.97852C244.389 4.29297 244.331 4.65527 244.262 5.06543C244.201 5.47559 244.132 5.89258 244.057 6.31641C243.982 6.74023 243.903 7.1333 243.821 7.49561L242.191 15.2271H239.966Z" fill="#492C0E"/>
<path d="M255.295 15.2271L258.464 0.23584H266.452L266.011 2.30713H260.453L259.592 6.37793H264.791L264.36 8.43896H259.161L258.156 13.1455H263.714L263.273 15.2271H255.295Z" fill="#492C0E"/>
</svg>
