<svg width="103" height="123" viewBox="0 0 103 123" fill="none" xmlns="http://www.w3.org/2000/svg">
<path d="M34.0611 76.0921C33.6681 77.3335 33.1175 78.4427 32.4094 79.4197C31.7012 80.3967 30.8052 81.1382 29.7213 81.6443C28.6373 82.1504 27.5211 82.1949 26.3725 81.7779C24.9414 81.2584 23.8305 80.1919 23.0397 78.5784C22.2488 76.9649 21.8264 75.2487 21.7724 73.4298C21.7184 71.611 21.9304 69.9464 22.4085 68.436C22.8015 67.1947 23.3521 66.0855 24.0602 65.1085C24.7684 64.1315 25.6644 63.39 26.7484 62.8839C27.8323 62.3778 28.9485 62.3332 30.0971 62.7502C31.547 63.2766 32.6627 64.3448 33.4441 65.9549C34.2255 67.565 34.6448 69.2743 34.7021 71.0828C34.7594 72.8913 34.5457 74.5611 34.0611 76.0921ZM19.6564 87.5747C19.1325 89.2298 18.2819 90.5242 17.1046 91.4577C15.9273 92.3913 14.6138 92.5949 13.1639 92.0685C11.7329 91.5489 10.5824 90.4911 9.7126 88.8951C8.84277 87.299 8.33377 85.5745 8.1856 83.7215C8.03743 81.8684 8.20568 80.1764 8.69034 78.6454C9.21431 76.9902 10.0666 75.6907 11.2471 74.7468C12.4276 73.8029 13.7428 73.5941 15.1927 74.1205C16.6237 74.6401 17.7742 75.6979 18.644 77.2939C19.5138 78.8899 20.0212 80.6196 20.1661 82.483C20.311 84.3464 20.1411 86.0436 19.6564 87.5747ZM31.0499 90.7769C33.2718 91.5836 35.3533 93.4638 37.2943 96.4176C39.2354 99.3714 40.6152 102.606 41.4339 106.121C42.2525 109.636 42.2853 112.583 41.5321 114.963C41.2308 115.914 40.8202 116.648 40.3004 117.162C39.7805 117.677 39.1765 117.977 38.4884 118.062C37.8003 118.146 37.1276 118.133 36.4702 118.021C35.8128 117.909 35.0793 117.706 34.2696 117.412C32.9892 116.947 31.3713 115.841 29.4159 114.093C27.4605 112.345 25.8897 111.256 24.7034 110.825C23.4607 110.374 21.5026 110.176 18.8292 110.232C16.1558 110.288 14.1225 110.063 12.7291 109.557C9.28329 108.306 8.03851 106.17 8.99474 103.15C9.558 101.37 10.7123 99.5807 12.4578 97.7808C14.2032 95.9809 16.1469 94.4663 18.289 93.2372C20.4311 92.008 22.6745 91.1386 25.0191 90.6289C27.3638 90.1192 29.3741 90.1685 31.0499 90.7769ZM39.8732 86.6795C38.7246 86.2625 37.8638 85.5002 37.2907 84.3925C36.7176 83.2848 36.4274 82.1126 36.4201 80.8758C36.4127 79.639 36.6055 78.3999 36.9985 77.1586C37.4831 75.6276 38.2617 74.1629 39.3342 72.7645C40.4067 71.3662 41.7102 70.2824 43.2448 69.5132C44.7794 68.744 46.2717 68.6225 47.7215 69.1489C48.8701 69.5659 49.731 70.3283 50.304 71.436C50.8771 72.5437 51.1673 73.7159 51.1747 74.9527C51.182 76.1894 50.9892 77.4285 50.5962 78.6699C50.1181 80.1802 49.3412 81.6397 48.2655 83.0484C47.1897 84.4571 45.8798 85.5443 44.3358 86.3101C42.7918 87.0759 41.3042 87.1991 39.8732 86.6795ZM53.0964 87.8818C54.5463 88.4082 55.4718 89.4305 55.8729 90.9486C56.2741 92.4668 56.2127 94.0534 55.6887 95.7086C55.204 97.2396 54.3768 98.6924 53.2069 100.067C52.037 101.441 50.6536 102.479 49.0568 103.179C47.46 103.88 45.946 103.97 44.515 103.451C43.0651 102.924 42.138 101.907 41.7336 100.4C41.3291 98.8917 41.3889 97.3102 41.9129 95.6551C42.3975 94.1241 43.2265 92.6661 44.3996 91.2813C45.5728 89.8964 46.9578 88.8537 48.5546 88.1532C50.1514 87.4528 51.6654 87.3623 53.0964 87.8818Z" fill="#EACDC7"/>
<path d="M85.7882 41.6537C85.5524 42.3985 85.2221 43.064 84.7972 43.6502C84.3723 44.2364 83.8347 44.6814 83.1843 44.985C82.534 45.2887 81.8642 45.3154 81.175 45.0652C80.3164 44.7535 79.6499 44.1136 79.1754 43.1455C78.7009 42.1774 78.4474 41.1477 78.415 40.0563C78.3826 38.965 78.5098 37.9663 78.7967 37.0601C79.0325 36.3152 79.3628 35.6497 79.7877 35.0635C80.2126 34.4773 80.7502 34.0324 81.4006 33.7288C82.0509 33.4251 82.7207 33.3984 83.4098 33.6486C84.2798 33.9644 84.9492 34.6053 85.418 35.5714C85.8869 36.5374 86.1385 37.563 86.1728 38.6481C86.2072 39.7332 86.079 40.7351 85.7882 41.6537ZM77.1454 48.5432C76.831 49.5363 76.3207 50.3129 75.6143 50.8731C74.908 51.4332 74.1198 51.5554 73.2499 51.2395C72.3913 50.9278 71.701 50.2931 71.1791 49.3355C70.6572 48.3779 70.3518 47.3431 70.2629 46.2313C70.174 45.1195 70.275 44.1043 70.5658 43.1857C70.8801 42.1926 71.3915 41.4128 72.0998 40.8465C72.8081 40.2802 73.5973 40.1549 74.4672 40.4707C75.3258 40.7825 76.0161 41.4171 76.538 42.3748C77.0599 43.3324 77.3643 44.3702 77.4512 45.4883C77.5382 46.6063 77.4362 47.6246 77.1454 48.5432ZM83.9815 50.4646C85.3146 50.9486 86.5635 52.0767 87.7282 53.849C88.8928 55.6213 89.7207 57.562 90.2119 59.671C90.7031 61.7801 90.7227 63.5484 90.2708 64.976C90.09 65.547 89.8437 65.987 89.5318 66.2959C89.2199 66.6048 88.8575 66.7846 88.4446 66.8354C88.0318 66.8862 87.6281 66.878 87.2337 66.811C86.8392 66.7439 86.3991 66.6221 85.9133 66.4458C85.1451 66.1669 84.1743 65.503 83.0011 64.4542C81.8279 63.4055 80.8854 62.7519 80.1736 62.4935C79.428 62.2227 78.2531 62.1042 76.6491 62.1377C75.0451 62.1712 73.825 62.0362 72.989 61.7327C70.9215 60.9821 70.1747 59.7006 70.7484 57.8882C71.0864 56.8206 71.779 55.7468 72.8262 54.6669C73.8735 53.587 75.0397 52.6782 76.325 51.9407C77.6102 51.2032 78.9562 50.6816 80.363 50.3758C81.7699 50.0699 82.976 50.0995 83.9815 50.4646ZM89.2755 48.0061C88.5863 47.7559 88.0698 47.2985 87.726 46.6339C87.3821 45.9693 87.208 45.266 87.2036 44.5239C87.1992 43.7818 87.3149 43.0384 87.5507 42.2936C87.8415 41.375 88.3086 40.4962 88.9521 39.6572C89.5956 38.8181 90.3777 38.1679 91.2984 37.7063C92.2192 37.2448 93.1146 37.172 93.9845 37.4878C94.6736 37.738 95.1901 38.1954 95.534 38.86C95.8778 39.5246 96.0519 40.228 96.0564 40.97C96.0608 41.7121 95.9451 42.4555 95.7093 43.2004C95.4224 44.1066 94.9563 44.9823 94.3108 45.8275C93.6654 46.6727 92.8795 47.325 91.953 47.7845C91.0266 48.244 90.1341 48.3179 89.2755 48.0061ZM97.2094 48.7275C98.0793 49.0434 98.6346 49.6567 98.8753 50.5676C99.116 51.4785 99.0792 52.4305 98.7648 53.4236C98.474 54.3422 97.9776 55.2139 97.2757 56.0386C96.5737 56.8633 95.7437 57.4858 94.7856 57.9061C93.8275 58.3264 92.9192 58.3806 92.0606 58.0689C91.1906 57.7531 90.6343 57.1428 90.3917 56.2381C90.149 55.3335 90.1849 54.3846 90.4993 53.3915C90.7901 52.4729 91.2874 51.5981 91.9913 50.7672C92.6952 49.9363 93.5262 49.3107 94.4843 48.8904C95.4424 48.4701 96.3508 48.4158 97.2094 48.7275Z" fill="#EACDC7"/>
<path d="M32.0854 10.8595C31.8958 11.6174 31.6067 12.3027 31.2181 12.9155C30.8295 13.5283 30.3194 14.0081 29.6878 14.3548C29.0563 14.7016 28.3881 14.7739 27.6834 14.5716C26.8053 14.3197 26.099 13.7278 25.5645 12.7959C25.0299 11.8641 24.7126 10.8558 24.6125 9.77109C24.5124 8.68638 24.5778 7.68298 24.8085 6.76088C24.9981 6.00299 25.2872 5.31765 25.6758 4.70486C26.0644 4.09206 26.5745 3.61228 27.2061 3.26552C27.8377 2.91877 28.5058 2.8465 29.2106 3.04872C30.1001 3.30399 30.8093 3.89672 31.3381 4.82691C31.8669 5.75711 32.1821 6.7614 32.2838 7.83979C32.3854 8.91818 32.3193 9.92474 32.0854 10.8595ZM23.869 18.3103C23.6162 19.3208 23.1539 20.1291 22.4822 20.7351C21.8105 21.3411 21.0299 21.5165 20.1403 21.2612C19.2623 21.0093 18.5326 20.4242 17.9513 19.506C17.37 18.5878 17.0004 17.5781 16.8426 16.4768C16.6847 15.3755 16.7227 14.3575 16.9566 13.4228C17.2094 12.4123 17.6725 11.6008 18.3458 10.9885C19.019 10.3762 19.8005 10.1976 20.69 10.4529C21.5681 10.7048 22.2977 11.2899 22.8791 12.2081C23.4604 13.1263 23.8292 14.1392 23.9854 15.2468C24.1417 16.3544 24.1029 17.3756 23.869 18.3103ZM30.8248 19.758C32.1881 20.1492 33.507 21.1876 34.7816 22.8734C36.0562 24.5591 37.0046 26.4355 37.6265 28.5026C38.2485 30.5697 38.3778 32.3296 38.0144 33.7822C37.869 34.3632 37.6499 34.8182 37.3571 35.1471C37.0643 35.476 36.713 35.6798 36.3033 35.7585C35.8935 35.8373 35.4894 35.8567 35.0907 35.8167C34.6921 35.7768 34.2444 35.6856 33.7476 35.543C32.962 35.3176 31.95 34.7226 30.7117 33.758C29.4733 32.7934 28.4902 32.2067 27.7624 31.9979C26.9999 31.7791 25.8176 31.741 24.2155 31.8838C22.6134 32.0265 21.3849 31.9752 20.53 31.7299C18.4158 31.1232 17.5894 29.8978 18.0508 28.0536C18.3226 26.9673 18.9487 25.8506 19.9291 24.7036C20.9095 23.5567 22.0195 22.5721 23.2591 21.75C24.4988 20.9279 25.8126 20.3166 27.2005 19.9161C28.5885 19.5156 29.7966 19.4629 30.8248 19.758ZM35.9669 16.9486C35.2621 16.7464 34.7172 16.326 34.3321 15.6875C33.9471 15.049 33.7293 14.3604 33.6789 13.6216C33.6285 12.8829 33.6981 12.1345 33.8877 11.3766C34.1216 10.4419 34.5343 9.53481 35.1258 8.65532C35.7173 7.77584 36.4592 7.07489 37.3514 6.55246C38.2437 6.03003 39.1346 5.89646 40.0241 6.15172C40.7289 6.35395 41.2738 6.77431 41.6589 7.4128C42.0439 8.0513 42.2617 8.73993 42.3121 9.4787C42.3625 10.2175 42.2929 10.9658 42.1033 11.7237C41.8726 12.6458 41.4607 13.5497 40.8676 14.4355C40.2745 15.3213 39.5289 16.0246 38.6309 16.5454C37.7329 17.0662 36.8449 17.2006 35.9669 16.9486ZM43.9462 17.1263C44.8358 17.3816 45.4292 17.9546 45.7264 18.8454C46.0235 19.7363 46.0457 20.6869 45.7929 21.6974C45.559 22.6322 45.1166 23.5341 44.4658 24.4034C43.8149 25.2726 43.0234 25.9491 42.0913 26.433C41.1591 26.9169 40.2541 27.0329 39.376 26.781C38.4865 26.5257 37.8923 25.9558 37.5935 25.0713C37.2948 24.1868 37.2718 23.2393 37.5246 22.2288C37.7585 21.2941 38.2017 20.389 38.8541 19.5134C39.5066 18.6379 40.2989 17.9582 41.231 17.4743C42.1631 16.9904 43.0682 16.8744 43.9462 17.1263Z" fill="#EACDC7"/>
</svg>
